<svg width="19" height="20" viewBox="0 0 19 20" fill="none" xmlns="http://www.w3.org/2000/svg">
<rect x="0.829346" y="0.99585" width="18.1016" height="18.1016" rx="9.05082" fill="#E1FFEE"/>
<path d="M9.88034 10.0467C10.3604 10.0467 10.8208 9.856 11.1603 9.51653C11.4998 9.17706 11.6905 8.71664 11.6905 8.23655C11.6905 7.75647 11.4998 7.29605 11.1603 6.95658C10.8208 6.6171 10.3604 6.42639 9.88034 6.42639C9.40025 6.42639 8.93983 6.6171 8.60036 6.95658C8.26089 7.29605 8.07017 7.75647 8.07017 8.23655C8.07017 8.71664 8.26089 9.17706 8.60036 9.51653C8.93983 9.856 9.40025 10.0467 9.88034 10.0467ZM11.0871 8.23655C11.0871 8.55661 10.96 8.86356 10.7337 9.08987C10.5073 9.31619 10.2004 9.44333 9.88034 9.44333C9.56028 9.44333 9.25333 9.31619 9.02702 9.08987C8.8007 8.86356 8.67356 8.55661 8.67356 8.23655C8.67356 7.9165 8.8007 7.60955 9.02702 7.38324C9.25333 7.15692 9.56028 7.02978 9.88034 7.02978C10.2004 7.02978 10.5073 7.15692 10.7337 7.38324C10.96 7.60955 11.0871 7.9165 11.0871 8.23655ZM13.5007 13.0637C13.5007 13.667 12.8973 13.667 12.8973 13.667H6.8634C6.8634 13.667 6.26001 13.667 6.26001 13.0637C6.26001 12.4603 6.8634 10.6501 9.88034 10.6501C12.8973 10.6501 13.5007 12.4603 13.5007 13.0637ZM12.8973 13.0612C12.8967 12.9128 12.8044 12.4663 12.3953 12.0572C12.0018 11.6638 11.2615 11.2535 9.88034 11.2535C8.49858 11.2535 7.75882 11.6638 7.36542 12.0572C6.95632 12.4663 6.8646 12.9128 6.8634 13.0612H12.8973Z" fill="#09B451"/>
</svg>
